<svg width="18" height="18" xmlns="http://www.w3.org/2000/svg" xmlns:xlink="http://www.w3.org/1999/xlink" xml:space="preserve" overflow="hidden"><defs><clipPath id="clip0"><rect x="620" y="36" width="18" height="18"/></clipPath></defs><g clip-path="url(#clip0)" transform="translate(-620 -36)"><path d="M629 44.25C628.062 44.25 627.312 43.5 627.312 42.5625 627.312 41.625 628.062 40.875 629 40.875 629.938 40.875 630.688 41.625 630.688 42.5625 630.688 43.5 629.938 44.25 629 44.25ZM629 38.625C627.706 38.625 626.487 39.2625 625.756 40.35 625.025 41.4188 624.875 42.7875 625.344 44.0062L627.125 47.9437 628.662 51.1688C628.719 51.3 628.85 51.375 629 51.375 629.15 51.375 629.281 51.3 629.338 51.1688L630.875 47.9437 632.656 44.0062C633.125 42.7875 632.975 41.4188 632.244 40.35 631.513 39.2625 630.294 38.625 629 38.625Z" fill="#5C8878" fill-rule="nonzero" fill-opacity="1"/></g></svg>