<svg width="16" height="16" xmlns="http://www.w3.org/2000/svg" xmlns:xlink="http://www.w3.org/1999/xlink" xml:space="preserve" overflow="hidden"><defs><clipPath id="clip0"><rect x="532" y="86" width="16" height="16"/></clipPath><clipPath id="clip1"><rect x="533" y="87" width="15" height="15"/></clipPath><clipPath id="clip2"><rect x="533" y="87" width="15" height="15"/></clipPath><clipPath id="clip3"><rect x="533" y="87" width="15" height="15"/></clipPath></defs><g clip-path="url(#clip0)" transform="translate(-532 -86)"><g clip-path="url(#clip1)"><g clip-path="url(#clip2)"><g clip-path="url(#clip3)"><path d="M534.25 90.125 534.25 98.875 546.75 98.875 546.75 90.125 534.25 90.125ZM540.719 95.5781C540.594 95.7031 540.406 95.7031 540.281 95.5781L535.656 91.0625 545.359 91.0625 540.719 95.5781ZM538.234 94.4531 535.188 97.5156 535.188 91.4688 538.234 94.4531ZM538.688 94.8906 539.859 96.0312C540.047 96.2031 540.281 96.2969 540.516 96.2969 540.75 96.2969 540.984 96.2031 541.172 96.0312L542.344 94.8906 545.375 97.9375 535.641 97.9375 538.688 94.8906ZM542.766 94.4531 545.812 91.4844 545.812 97.5 542.766 94.4531Z" fill="#5C8878" fill-rule="nonzero" fill-opacity="1"/></g></g></g></g></svg>