<svg width="19" height="19" xmlns="http://www.w3.org/2000/svg" xmlns:xlink="http://www.w3.org/1999/xlink" xml:space="preserve" overflow="hidden"><defs><clipPath id="clip0"><rect x="529" y="37" width="19" height="19"/></clipPath><clipPath id="clip1"><rect x="530" y="38" width="18" height="18"/></clipPath><clipPath id="clip2"><rect x="530" y="38" width="18" height="18"/></clipPath><clipPath id="clip3"><rect x="530" y="38" width="18" height="18"/></clipPath></defs><g clip-path="url(#clip0)" transform="translate(-529 -37)"><g clip-path="url(#clip1)"><g clip-path="url(#clip2)"><g clip-path="url(#clip3)"><path d="M539 46.25C538.062 46.25 537.312 45.5 537.312 44.5625 537.312 43.625 538.062 42.875 539 42.875 539.938 42.875 540.688 43.625 540.688 44.5625 540.688 45.5 539.938 46.25 539 46.25ZM539 40.625C537.706 40.625 536.487 41.2625 535.756 42.35 535.025 43.4188 534.875 44.7875 535.344 46.0062L537.125 49.9437 538.662 53.1688C538.719 53.3 538.85 53.375 539 53.375 539.15 53.375 539.281 53.3 539.338 53.1688L540.875 49.9437 542.656 46.0062C543.125 44.7875 542.975 43.4188 542.244 42.35 541.513 41.2625 540.294 40.625 539 40.625Z" fill="#5C8878" fill-rule="nonzero" fill-opacity="1"/></g></g></g></g></svg>