<svg width="16" height="16" xmlns="http://www.w3.org/2000/svg" xmlns:xlink="http://www.w3.org/1999/xlink" xml:space="preserve" overflow="hidden"><defs><clipPath id="clip0"><rect x="532" y="64" width="16" height="16"/></clipPath><clipPath id="clip1"><rect x="533" y="64" width="14" height="15"/></clipPath><clipPath id="clip2"><rect x="533" y="64" width="14" height="15"/></clipPath><clipPath id="clip3"><rect x="533" y="64" width="14" height="15"/></clipPath></defs><g clip-path="url(#clip0)" transform="translate(-532 -64)"><g clip-path="url(#clip1)"><g clip-path="url(#clip2)"><g clip-path="url(#clip3)"><path d="M5.71667 4.25833C5.83333 4.14167 5.90625 3.98125 5.90625 3.80625 5.90625 3.63125 5.83333 3.47083 5.71667 3.35417L3.70417 1.35625C3.5875 1.23958 3.42708 1.16667 3.26667 1.16667 3.10625 1.16667 2.93125 1.23958 2.81458 1.35625L2.59583 1.575 5.49792 4.47708 5.71667 4.25833Z" fill="#5C8878" fill-rule="nonzero" fill-opacity="1" transform="matrix(1 0 0 1.07143 533 64)"/><path d="M8.64792 9.40625C8.58958 9.46458 8.50208 9.49375 8.42917 9.49375 8.35625 9.49375 8.26875 9.46458 8.21042 9.40625L4.59375 5.80417C4.53542 5.74583 4.50625 5.65833 4.50625 5.58542 4.50625 5.5125 4.53542 5.425 4.59375 5.36667L5.04583 4.92917 2.14375 2.02708C1.95417 2.21667 1.77917 2.39167 1.6625 2.50833 1.37083 2.78542 1.19583 3.15 1.18125 3.54375 1.1375 4.2 1.29792 4.82708 1.51667 5.43958 1.75 5.97917 2.05625 6.48958 2.39167 6.97083 3.5875 8.76458 5.08958 10.325 6.83958 11.5646 7.13125 11.7833 7.4375 11.9729 7.75833 12.1479 8.4875 12.5125 9.26042 12.775 10.0917 12.8333 10.6458 12.8771 11.2 12.6583 11.5792 12.25L11.9729 11.8562 9.08542 8.95417 8.64792 9.40625Z" fill="#5C8878" fill-rule="nonzero" fill-opacity="1" transform="matrix(1 0 0 1.07143 533 64)"/><path d="M12.6437 10.2958 10.6312 8.28333C10.5146 8.16667 10.3542 8.09375 10.1792 8.09375 10.0042 8.09375 9.84375 8.16667 9.72708 8.28333L9.50833 8.51667 12.4104 11.4187 12.6292 11.2C12.7458 11.0833 12.8187 10.9229 12.8187 10.7479 12.8187 10.5729 12.7604 10.4125 12.6437 10.2958Z" fill="#5C8878" fill-rule="nonzero" fill-opacity="1" transform="matrix(1 0 0 1.07143 533 64)"/></g></g></g></g></svg>